<svg xmlns="http://www.w3.org/2000/svg" viewBox="0 0 512 512" fill="none">
  <rect width="512" height="512" rx="128" fill="#7c3aed"/>
  
  <!-- Base -->
  <path d="M176 416H336" stroke="white" stroke-width="36" stroke-linecap="round"/>
  
  <!-- Pillar -->
  <path d="M256 104V416" stroke="white" stroke-width="36" stroke-linecap="round"/>
  
  <!-- Beam -->
  <path d="M128 176C180 176 220 144 256 128C292 144 332 176 384 176" stroke="white" stroke-width="32" stroke-linecap="round"/>
  
  <!-- Left Pan -->
  <path d="M128 176L88 312C88 334.091 105.909 352 128 352C150.091 352 168 334.091 168 312L128 176Z" fill="white"/>
  
  <!-- Right Pan -->
  <path d="M384 176L344 312C344 334.091 361.909 352 384 352C406.091 352 424 334.091 424 312L384 176Z" fill="white"/>
  
  <!-- Top decorative circle -->
  <circle cx="256" cy="104" r="24" fill="white"/>
</svg>